<svg xmlns="http://www.w3.org/2000/svg" width="313.071" height="208.464" viewBox="0 0 293.504 195.435"><path d="M0 0v193.228l38.713.257v-28.261l68.504-68.504-68.504-68.504V.256z" fill="#5eab98" fill-rule="evenodd"/><path d="M0 0v193.228l38.713.257v-28.261l68.504-68.504-68.504-68.504V.256zm9.464 9.464h19.788v22.671L70.416 73.3 53.688 90.028 29.252 65.34v32.698H9.464zm67.644 70.528L93.836 96.72l-64.584 64.584v22.463H9.464V107.5h19.788v20.348z" fill="#202020"/><path d="M130.638 193.739v-23.658H80.696l49.942-49.94-16.729-16.73-65.732 65.733v24.595zM210.978 113.767h53.82v19.5h-34.32v60.762h-19.5zM272.598 71.357h19.5v122.672h-19.5zM158.347 113.767h35.492v19.5h-35.492v41.263h44.831v19.5h-64.33V82.155h19.5z" fill="#5eab98" stroke="#1e1e1e" stroke-width="2.813" stroke-linecap="round"/></svg>